<svg id="visual" viewBox="0 0 900 600" width="900" height="600" xmlns="http://www.w3.org/2000/svg" xmlns:xlink="http://www.w3.org/1999/xlink" version="1.1"><rect x="0" y="0" width="900" height="600" fill="#d8e0e6"></rect><defs><linearGradient id="grad1_0" x1="33.3%" y1="0%" x2="100%" y2="100%"><stop offset="20%" stop-color="#ff6f61" stop-opacity="1"></stop><stop offset="80%" stop-color="#ff6f61" stop-opacity="1"></stop></linearGradient></defs><defs><linearGradient id="grad1_1" x1="33.3%" y1="0%" x2="100%" y2="100%"><stop offset="20%" stop-color="#ff6f61" stop-opacity="1"></stop><stop offset="80%" stop-color="#fd88b3" stop-opacity="1"></stop></linearGradient></defs><defs><linearGradient id="grad1_2" x1="33.3%" y1="0%" x2="100%" y2="100%"><stop offset="20%" stop-color="#dcaee6" stop-opacity="1"></stop><stop offset="80%" stop-color="#fd88b3" stop-opacity="1"></stop></linearGradient></defs><defs><linearGradient id="grad1_3" x1="33.3%" y1="0%" x2="100%" y2="100%"><stop offset="20%" stop-color="#dcaee6" stop-opacity="1"></stop><stop offset="80%" stop-color="#c5ccf1" stop-opacity="1"></stop></linearGradient></defs><defs><linearGradient id="grad1_4" x1="33.3%" y1="0%" x2="100%" y2="100%"><stop offset="20%" stop-color="#d8e0e6" stop-opacity="1"></stop><stop offset="80%" stop-color="#c5ccf1" stop-opacity="1"></stop></linearGradient></defs><defs><linearGradient id="grad2_0" x1="0%" y1="0%" x2="66.7%" y2="100%"><stop offset="20%" stop-color="#ff6f61" stop-opacity="1"></stop><stop offset="80%" stop-color="#ff6f61" stop-opacity="1"></stop></linearGradient></defs><defs><linearGradient id="grad2_1" x1="0%" y1="0%" x2="66.7%" y2="100%"><stop offset="20%" stop-color="#fd88b3" stop-opacity="1"></stop><stop offset="80%" stop-color="#ff6f61" stop-opacity="1"></stop></linearGradient></defs><defs><linearGradient id="grad2_2" x1="0%" y1="0%" x2="66.7%" y2="100%"><stop offset="20%" stop-color="#fd88b3" stop-opacity="1"></stop><stop offset="80%" stop-color="#dcaee6" stop-opacity="1"></stop></linearGradient></defs><defs><linearGradient id="grad2_3" x1="0%" y1="0%" x2="66.7%" y2="100%"><stop offset="20%" stop-color="#c5ccf1" stop-opacity="1"></stop><stop offset="80%" stop-color="#dcaee6" stop-opacity="1"></stop></linearGradient></defs><defs><linearGradient id="grad2_4" x1="0%" y1="0%" x2="66.7%" y2="100%"><stop offset="20%" stop-color="#c5ccf1" stop-opacity="1"></stop><stop offset="80%" stop-color="#d8e0e6" stop-opacity="1"></stop></linearGradient></defs><g transform="translate(900, 0)"><path d="M0 189.3C-15.1 190.9 -30.3 192.5 -42.1 184.5C-54 176.6 -62.5 159.2 -71.2 147.8C-79.8 136.3 -88.6 130.8 -101 126.7C-113.4 122.5 -129.4 119.6 -138.4 110.4C-147.4 101.1 -149.5 85.6 -149.6 72C-149.6 58.4 -147.7 46.8 -154 35.2C-160.3 23.5 -174.8 11.7 -189.3 0L0 0Z" fill="#c9d8ec"></path><path d="M0 151.4C-12.1 152.7 -24.2 154 -33.7 147.6C-43.2 141.3 -50 127.4 -56.9 118.2C-63.9 109 -70.9 104.7 -80.8 101.3C-90.7 98 -103.5 95.7 -110.7 88.3C-117.9 80.9 -119.6 68.5 -119.6 57.6C-119.7 46.8 -118.2 37.5 -123.2 28.1C-128.3 18.8 -139.8 9.4 -151.4 0L0 0Z" fill="#ccbef0"></path><path d="M0 113.6C-9.1 114.5 -18.2 115.5 -25.3 110.7C-32.4 106 -37.5 95.5 -42.7 88.7C-47.9 81.8 -53.2 78.5 -60.6 76C-68 73.5 -77.6 71.7 -83 66.2C-88.4 60.7 -89.7 51.4 -89.7 43.2C-89.8 35.1 -88.6 28.1 -92.4 21.1C-96.2 14.1 -104.9 7 -113.6 0L0 0Z" fill="#ee9bd2"></path><path d="M0 75.7C-6.1 76.4 -12.1 77 -16.8 73.8C-21.6 70.7 -25 63.7 -28.5 59.1C-31.9 54.5 -35.4 52.3 -40.4 50.7C-45.4 49 -51.7 47.8 -55.4 44.1C-59 40.5 -59.8 34.2 -59.8 28.8C-59.9 23.4 -59.1 18.7 -61.6 14.1C-64.1 9.4 -69.9 4.7 -75.7 0L0 0Z" fill="#ff788d"></path><path d="M0 37.9C-3 38.2 -6.1 38.5 -8.4 36.9C-10.8 35.3 -12.5 31.8 -14.2 29.6C-16 27.3 -17.7 26.2 -20.2 25.3C-22.7 24.5 -25.9 23.9 -27.7 22.1C-29.5 20.2 -29.9 17.1 -29.9 14.4C-29.9 11.7 -29.5 9.4 -30.8 7C-32.1 4.7 -35 2.3 -37.9 0L0 0Z" fill="#ff6f61"></path></g><g transform="translate(0, 600)"><path d="M0 -189.3C11.8 -178.4 23.6 -167.5 37.8 -165.7C52 -164 68.6 -171.5 79.4 -164.9C90.2 -158.2 95.4 -137.5 96.6 -121.2C97.9 -104.9 95.4 -93.1 112.6 -89.8C129.8 -86.5 166.8 -91.6 170.5 -82.1C174.3 -72.7 144.8 -48.6 142.3 -32.5C139.9 -16.4 164.6 -8.2 189.3 0L0 0Z" fill="#c9d8ec"></path><path d="M0 -151.4C9.5 -142.7 18.9 -134 30.3 -132.6C41.6 -131.2 54.9 -137.2 63.5 -131.9C72.2 -126.6 76.3 -110 77.3 -96.9C78.3 -83.9 76.3 -74.5 90.1 -71.8C103.8 -69.2 133.4 -73.3 136.4 -65.7C139.4 -58.1 115.8 -38.9 113.9 -26C111.9 -13.1 131.7 -6.5 151.4 0L0 0Z" fill="#ccbef0"></path><path d="M0 -113.6C7.1 -107 14.2 -100.5 22.7 -99.4C31.2 -98.4 41.1 -102.9 47.6 -98.9C54.1 -94.9 57.2 -82.5 58 -72.7C58.8 -62.9 57.2 -55.9 67.6 -53.9C77.9 -51.9 100.1 -55 102.3 -49.3C104.6 -43.6 86.9 -29.2 85.4 -19.5C84 -9.8 98.8 -4.9 113.6 0L0 0Z" fill="#ee9bd2"></path><path d="M0 -75.7C4.7 -71.3 9.5 -67 15.1 -66.3C20.8 -65.6 27.4 -68.6 31.8 -66C36.1 -63.3 38.1 -55 38.7 -48.5C39.2 -42 38.1 -37.2 45 -35.9C51.9 -34.6 66.7 -36.6 68.2 -32.9C69.7 -29.1 57.9 -19.4 56.9 -13C56 -6.5 65.8 -3.3 75.7 0L0 0Z" fill="#ff788d"></path><path d="M0 -37.9C2.4 -35.7 4.7 -33.5 7.6 -33.1C10.4 -32.8 13.7 -34.3 15.9 -33C18 -31.6 19.1 -27.5 19.3 -24.2C19.6 -21 19.1 -18.6 22.5 -18C26 -17.3 33.4 -18.3 34.1 -16.4C34.9 -14.5 29 -9.7 28.5 -6.5C28 -3.3 32.9 -1.6 37.9 0L0 0Z" fill="#ff6f61"></path></g></svg>